Coordinates
version=1
nRows=27
nColumns=12
inDegrees=yes

Units are S.I. units (second, meters, Newtons, ...)
Angles are in degrees

endheader
time	SC_y	SC_z	SC_x	AC_y	AC_z	AC_x	GH_y	GH_z	GH_yy	EL_x	PS_y
       0.0              -31.86          31.63          50.75          36.25          6.938         -11.82         -73.12         -15.68         -103.0          96.27          6.629
   0.03014              -31.87          31.63          50.75          36.25          6.935         -11.82         -73.13         -15.68         -103.0          96.26           6.63
   0.06028              -31.87          31.63          50.75          36.25          6.932         -11.82         -73.15         -15.67         -102.9          96.25          6.631
   0.09043              -31.87          31.63          50.75          36.25          6.929         -11.81         -73.16         -15.67         -102.9          96.23          6.631
    0.1206              -31.88          31.63          50.76          36.25          6.926         -11.81         -73.18         -15.67         -102.9          96.21          6.632
    0.1507              -31.88          31.63          50.76          36.25          6.923          -11.8          -73.2         -15.66         -102.9           96.2          6.633
    0.1809              -31.89          31.63          50.76          36.25          6.919          -11.8         -73.22         -15.66         -102.9          96.18          6.634
     0.211              -31.89          31.63          50.76          36.25          6.915         -11.79         -73.24         -15.65         -102.9          96.16          6.635
    0.2411               -31.9          31.63          50.77          36.26          6.911         -11.79         -73.26         -15.65         -102.9          96.14          6.636
    0.2713               -31.9          31.63          50.77          36.26          6.906         -11.78         -73.28         -15.64         -102.8          96.12          6.637
    0.3014              -31.91          31.63          50.78          36.26          6.901         -11.77         -73.31         -15.63         -102.8          96.09          6.638
    0.3316              -31.91          31.63          50.78          36.26          6.896         -11.77         -73.33         -15.63         -102.8          96.07          6.639
    0.3617              -31.92          31.63          50.78          36.26           6.89         -11.76         -73.36         -15.62         -102.8          96.04          6.641
    0.3918              -31.93          31.63          50.79          36.26          6.884         -11.75         -73.39         -15.61         -102.7          96.01          6.642
     0.422              -31.94          31.63           50.8          36.26          6.878         -11.74         -73.43          -15.6         -102.7          95.98          6.644
    0.4521              -31.94          31.63           50.8          36.26          6.871         -11.73         -73.46         -15.59         -102.7          95.94          6.646
    0.4823              -31.95          31.63          50.81          36.26          6.863         -11.72          -73.5         -15.58         -102.7           95.9          6.648
    0.5124              -31.96          31.63          50.81          36.26          6.854         -11.71         -73.55         -15.57         -102.6          95.86           6.65
    0.5426              -31.97          31.63          50.82          36.26          6.845          -11.7         -73.59         -15.56         -102.6          95.82          6.652
    0.5727              -31.99          31.63          50.83          36.27          6.835         -11.68         -73.64         -15.55         -102.5          95.77          6.655
    0.6028               -32.0          31.63          50.84          36.27          6.824         -11.67          -73.7         -15.53         -102.5          95.71          6.657
     0.633              -32.01          31.63          50.85          36.27          6.811         -11.65         -73.76         -15.52         -102.4          95.65           6.66
    0.6631              -32.03          31.63          50.86          36.27          6.798         -11.63         -73.83          -15.5         -102.4          95.59          6.664
    0.6933              -32.05          31.63          50.87          36.27          6.783         -11.61         -73.91         -15.48         -102.3          95.51          6.667
    0.7234              -32.07          31.63          50.89          36.28          6.766         -11.59         -73.99         -15.46         -102.3          95.43          6.671
    0.7535              -32.09          31.63           50.9          36.28          6.747         -11.56         -74.09         -15.43         -102.2          95.34          6.676
    0.7837              -32.12          31.63          50.92          36.28          6.727         -11.54          -74.2         -15.41         -102.1          95.24          6.681
